<svg width="24" height="24" viewBox="0 0 24 24" fill="none" xmlns="http://www.w3.org/2000/svg">
<g id="instagram">
<path id="Subtract" fill-rule="evenodd" clip-rule="evenodd" d="M1 7C1 3.68629 3.68629 1 7 1H17C20.3137 1 23 3.68629 23 7V17C23 20.3137 20.3137 23 17 23H7C3.68629 23 1 20.3137 1 17V7ZM12.4833 8.98949C11.8591 8.89693 11.2217 9.00354 10.6616 9.29417C10.1015 9.58479 9.64727 10.0446 9.36357 10.6083C9.07988 11.1719 8.98113 11.8107 9.08138 12.4336C9.18163 13.0566 9.47577 13.6322 9.92196 14.0784C10.3682 14.5245 10.9437 14.8187 11.5667 14.9189C12.1897 15.0192 12.8284 14.9204 13.392 14.6367C13.9557 14.353 14.4155 13.8988 14.7061 13.3387C14.9968 12.7786 15.1034 12.1412 15.0108 11.517C14.9164 10.8803 14.6197 10.2908 14.1646 9.83572C13.7095 9.38058 13.12 9.0839 12.4833 8.98949ZM9.74043 7.51892C10.6739 7.03455 11.7364 6.85685 12.7767 7.01112C13.8379 7.16847 14.8203 7.66295 15.5788 8.4215C16.3374 9.18006 16.8318 10.1625 16.9892 11.2236C17.1435 12.2639 16.9658 13.3264 16.4814 14.2599C15.997 15.1934 15.2306 15.9504 14.2912 16.4232C13.3518 16.896 12.2873 17.0606 11.2489 16.8935C10.2106 16.7265 9.2514 16.2362 8.50775 15.4926C7.76409 14.7489 7.27386 13.7897 7.10678 12.7514C6.9397 11.7131 7.10428 10.6485 7.5771 9.70909C8.04993 8.76969 8.80693 8.00329 9.74043 7.51892ZM17.5 5.5C16.9477 5.5 16.5 5.94772 16.5 6.5C16.5 7.05228 16.9477 7.5 17.5 7.5H17.51C18.0623 7.5 18.51 7.05228 18.51 6.5C18.51 5.94772 18.0623 5.5 17.51 5.5H17.5Z" fill="white"/>
</g>
</svg>
