<svg width="12" height="12" viewBox="0 0 12 12" fill="none" xmlns="http://www.w3.org/2000/svg">
<path id="copyright" d="M5.8125 0C2.60156 0 0 2.625 0 5.8125C0 9.02344 2.60156 11.625 5.8125 11.625C9 11.625 11.625 9.02344 11.625 5.8125C11.625 2.625 9 0 5.8125 0ZM5.8125 10.5C3.21094 10.5 1.125 8.41406 1.125 5.8125C1.125 3.23438 3.21094 1.125 5.8125 1.125C8.39062 1.125 10.5 3.23438 10.5 5.8125C10.5 8.41406 8.39062 10.5 5.8125 10.5ZM8.32031 8.13281C8.36719 8.08594 8.39062 8.01562 8.39062 7.94531C8.39062 7.875 8.36719 7.82812 8.34375 7.78125L7.875 7.14844C7.78125 7.00781 7.59375 6.98438 7.45312 7.10156C7.24219 7.28906 6.67969 7.73438 5.92969 7.73438C4.71094 7.73438 4.07812 6.75 4.07812 5.78906C4.07812 4.73438 4.78125 3.89062 5.90625 3.89062C6.60938 3.89062 7.14844 4.26562 7.35938 4.42969C7.47656 4.52344 7.6875 4.5 7.75781 4.35938L8.20312 3.70312C8.22656 3.65625 8.25 3.60938 8.25 3.53906C8.25 3.46875 8.20312 3.39844 8.15625 3.35156C7.94531 3.14062 7.17188 2.53125 5.85938 2.53125C4.00781 2.53125 2.57812 3.9375 2.57812 5.78906C2.57812 7.66406 3.9375 9.11719 5.88281 9.11719C7.24219 9.11719 8.08594 8.36719 8.32031 8.13281Z" fill="white"/>
</svg>
