<?xml version="1.0" encoding="UTF-8" standalone="no"?>
<svg
   xmlns:dc="http://purl.org/dc/elements/1.1/"
   xmlns:cc="http://creativecommons.org/ns#"
   xmlns:rdf="http://www.w3.org/1999/02/22-rdf-syntax-ns#"
   xmlns:svg="http://www.w3.org/2000/svg"
   xmlns="http://www.w3.org/2000/svg"
   xmlns:sodipodi="http://sodipodi.sourceforge.net/DTD/sodipodi-0.dtd"
   xmlns:inkscape="http://www.inkscape.org/namespaces/inkscape"
   width="30"
   height="30"
   viewBox="0 0 30 30"
   fill="none"
   version="1.1"
   id="svg835"
   sodipodi:docname="marker_place.svg"
   inkscape:version="1.0.2 (e86c8708, 2021-01-15)">
  <metadata
     id="metadata841">
    <rdf:RDF>
      <cc:Work
         rdf:about="">
        <dc:format>image/svg+xml</dc:format>
        <dc:type
           rdf:resource="http://purl.org/dc/dcmitype/StillImage" />
        <dc:title></dc:title>
      </cc:Work>
    </rdf:RDF>
  </metadata>
  <defs
     id="defs839" />
  <sodipodi:namedview
     pagecolor="#ffffff"
     bordercolor="#666666"
     borderopacity="1"
     objecttolerance="10"
     gridtolerance="10"
     guidetolerance="10"
     inkscape:pageopacity="0"
     inkscape:pageshadow="2"
     inkscape:window-width="1440"
     inkscape:window-height="847"
     id="namedview837"
     showgrid="false"
     inkscape:zoom="14.910737"
     inkscape:cx="4.1532262"
     inkscape:cy="13.688772"
     inkscape:window-x="0"
     inkscape:window-y="25"
     inkscape:window-maximized="0"
     inkscape:current-layer="svg835"
     inkscape:pagecheckerboard="true"
     fit-margin-top="0"
     fit-margin-left="0"
     fit-margin-right="0"
     fit-margin-bottom="0" />
  <circle
     style="font-variation-settings:normal;opacity:1;vector-effect:none;fill:#e95151;fill-opacity:1;fill-rule:evenodd;stroke:none;stroke-width:9.66047;stroke-linecap:butt;stroke-linejoin:round;stroke-miterlimit:4;stroke-dasharray:none;stroke-dashoffset:1.93209;stroke-opacity:1;paint-order:stroke fill markers;stop-color:#000000;stop-opacity:1"
     id="path843"
     cx="15"
     cy="15"
     r="15" />
  <path
     d="m 14.93318,4.4193633 c -0.09291,0.01341 -0.17935,0.05539 -0.24734,0.120136 L 7.3646201,11.415514 h -0.961089 c -0.119948,10e-6 -0.234979,0.04767 -0.319795,0.13248 -0.084816,0.08482 -0.1324698,0.19985 -0.1324818,0.3198 v 2.52285 c 1.2e-5,0.11993 0.047666,0.23493 0.1324818,0.31983 0.084816,0.0848 0.199847,0.1324 0.319795,0.1324 H 23.59005 c 0.1199,0 0.235,-0.0476 0.3198,-0.1324 0.0848,-0.0849 0.1324,-0.1999 0.1325,-0.31983 v -0.94695 c 8e-4,-0.05993 -0.0103,-0.11944 -0.0326,-0.17505 -0.0224,-0.05562 -0.0555,-0.10624 -0.0976,-0.14892 -0.0421,-0.04268 -0.0922,-0.07657 -0.1475,-0.0997 -0.0553,-0.02314 -0.1147,-0.03505 -0.1746,-0.03505 -0.06,0 -0.1193,0.01191 -0.1746,0.03505 -0.0553,0.02313 -0.1054,0.05702 -0.1475,0.0997 -0.0421,0.04268 -0.0753,0.0933 -0.0976,0.14892 -0.0224,0.05561 -0.0334,0.11512 -0.0326,0.17505 v 0.49467 H 6.8558071 v -1.6183 H 23.59005 c 0.0599,8.5e-4 0.1194,-0.01022 0.175,-0.03257 0.0556,-0.02235 0.1063,-0.05553 0.149,-0.09761 0.0426,-0.04208 0.0765,-0.09223 0.0997,-0.14752 0.0231,-0.0553 0.035,-0.11464 0.035,-0.17457 0,-0.05994 -0.0119,-0.11928 -0.035,-0.17458 -0.0232,-0.05529 -0.0571,-0.10543 -0.0997,-0.14752 -0.0427,-0.04208 -0.0934,-0.07526 -0.149,-0.09761 -0.0556,-0.02234 -0.1151,-0.03342 -0.175,-0.03257 h -0.9611 L 15.30772,4.5394993 c -0.04935,-0.04693 -0.10867,-0.08211 -0.17353,-0.102911 -0.06485,-0.0208 -0.13356,-0.02669 -0.20101,-0.01722 z m 0.0636,1.067091 6.31777,5.9290597 H 8.6790501 Z m -0.0424,1.95751 c -0.86871,0 -1.5759,0.72712 -1.5759,1.5971 0,0.86998 0.70719,1.5829697 1.5759,1.5829697 0.86872,0 1.58297,-0.7129897 1.58297,-1.5829697 0,-0.86998 -0.71425,-1.5971 -1.58297,-1.5971 z m 0,0.91868 c 0.38022,0 0.68548,0.29765 0.68548,0.67842 0,0.38077 -0.30526,0.67135 -0.68548,0.67135 -0.38021,0 -0.67841,-0.29058 -0.67841,-0.67135 0,-0.38077 0.2982,-0.67842 0.67841,-0.67842 z M 9.1171901,15.387074 c -0.05939,9e-4 -0.11802,0.0135 -0.17254,0.0371 -0.05452,0.0236 -0.10386,0.0577 -0.1452,0.100401 -0.04134,0.0426 -0.07388,0.093 -0.09575,0.1482 -0.02187,0.0552 -0.03265,0.1142 -0.03172,0.1736 v 4.226 h -2.268449 c -0.014126,-7e-4 -0.028275,-7e-4 -0.042401,0 -0.112454,0.0106 -0.216873,0.0629 -0.292723,0.1466 -0.075849,0.0837 -0.1176399,0.1927 -0.1171528,0.3057 v 2.438 c 1.2e-5,0.12 0.047666,0.235 0.1324818,0.3198 0.084816,0.0848 0.199847,0.1325 0.319795,0.1325 H 23.59005 c 0.1199,0 0.235,-0.0477 0.3198,-0.1325 0.0848,-0.0848 0.1324,-0.1998 0.1325,-0.3198 v -0.9187 c 8e-4,-0.0599 -0.0103,-0.1194 -0.0326,-0.175 -0.0224,-0.0556 -0.0555,-0.1062 -0.0976,-0.1489 -0.0421,-0.0427 -0.0922,-0.0766 -0.1475,-0.0997 -0.0553,-0.0232 -0.1147,-0.0351 -0.1746,-0.0351 -0.06,0 -0.1193,0.0119 -0.1746,0.0351 -0.0553,0.0231 -0.1054,0.057 -0.1475,0.0997 -0.0421,0.0427 -0.0753,0.0933 -0.0976,0.1489 -0.0224,0.0556 -0.0334,0.1151 -0.0326,0.175 v 0.4664 H 6.8558071 v -1.5335 H 23.59005 c 0.0599,9e-4 0.1194,-0.0102 0.175,-0.0325 0.0556,-0.0224 0.1063,-0.0556 0.149,-0.0976 0.0426,-0.0421 0.0765,-0.0923 0.0997,-0.1476 0.0231,-0.0553 0.035,-0.1146 0.035,-0.1745 0,-0.06 -0.0119,-0.1193 -0.035,-0.1746 -0.0232,-0.0553 -0.0571,-0.1054 -0.0997,-0.1475 -0.0427,-0.0421 -0.0934,-0.0753 -0.149,-0.0976 -0.0556,-0.0224 -0.1151,-0.0335 -0.175,-0.0326 h -2.3674 v -4.226 c 9e-4,-0.0605 -0.0103,-0.1207 -0.033,-0.1769 -0.0228,-0.0561 -0.0566,-0.1071 -0.0994,-0.15 -0.0429,-0.0428 -0.0939,-0.0766 -0.15,-0.0994 -0.0562,-0.0227 -0.1164,-0.034 -0.1769,-0.033 -0.0594,9e-4 -0.1181,0.0135 -0.1726,0.0371 -0.0545,0.0236 -0.1038,0.0577 -0.1452,0.1004 -0.0413,0.0426 -0.0739,0.093 -0.0957,0.1482 -0.0219,0.0552 -0.0327,0.1142 -0.0318,0.1736 v 4.226 h -3.0599 v -4.226 c 0.001,-0.0605 -0.0103,-0.1207 -0.033,-0.1769 -0.0228,-0.0561 -0.0566,-0.1071 -0.0994,-0.15 -0.0429,-0.0428 -0.0939,-0.0766 -0.15,-0.0994 -0.0562,-0.0227 -0.1163,-0.034 -0.1769,-0.033 -0.0594,9e-4 -0.1181,0.0135 -0.1726,0.0371 -0.0545,0.0236 -0.1038,0.0577 -0.1452,0.1004 -0.0413,0.0426 -0.0738,0.093 -0.0957,0.1482 -0.0219,0.0552 -0.0327,0.1142 -0.0317,0.1736 v 4.226 h -2.81263 v -4.226 c 9.5e-4,-0.0605 -0.01029,-0.1207 -0.03304,-0.1769 -0.02274,-0.0561 -0.05654,-0.1071 -0.09939,-0.15 -0.04284,-0.0428 -0.09386,-0.0766 -0.15002,-0.0994 -0.05616,-0.0227 -0.11631,-0.034 -0.1769,-0.033 -0.05939,9e-4 -0.11802,0.0135 -0.17254,0.0371 -0.05452,0.0236 -0.10385,0.0577 -0.1452,0.100401 -0.04134,0.0426 -0.07387,0.093 -0.09574,0.1482 -0.02188,0.0552 -0.03265,0.1142 -0.03172,0.1736 v 4.226 H 9.5765301 v -4.226 c 9.5e-4,-0.0605 -0.01028,-0.1207 -0.03303,-0.1769 -0.02275,-0.0561 -0.05655,-0.1071 -0.09939,-0.15 -0.04285,-0.0428 -0.09386,-0.0766 -0.15002,-0.0994 -0.05616,-0.0227 -0.11632,-0.034 -0.1769,-0.033 z"
     fill="#ffffff"
     id="path833" />
</svg>
