<?xml version="1.0" encoding="UTF-8" standalone="no"?>
<svg
   xmlns:dc="http://purl.org/dc/elements/1.1/"
   xmlns:cc="http://creativecommons.org/ns#"
   xmlns:rdf="http://www.w3.org/1999/02/22-rdf-syntax-ns#"
   xmlns:svg="http://www.w3.org/2000/svg"
   xmlns="http://www.w3.org/2000/svg"
   xmlns:sodipodi="http://sodipodi.sourceforge.net/DTD/sodipodi-0.dtd"
   xmlns:inkscape="http://www.inkscape.org/namespaces/inkscape"
   width="46.5"
   height="61.499882"
   viewBox="0 0 46.5 61.499881"
   fill="none"
   version="1.1"
   id="svg835"
   sodipodi:docname="marker_rancho.svg"
   inkscape:version="1.0.2 (e86c8708, 2021-01-15)">
  <metadata
     id="metadata841">
    <rdf:RDF>
      <cc:Work
         rdf:about="">
        <dc:format>image/svg+xml</dc:format>
        <dc:type
           rdf:resource="http://purl.org/dc/dcmitype/StillImage" />
        <dc:title></dc:title>
      </cc:Work>
    </rdf:RDF>
  </metadata>
  <defs
     id="defs839">
    <filter
       style="color-interpolation-filters:sRGB"
       inkscape:label="Feather"
       id="filter1626">
      <feGaussianBlur
         stdDeviation="1.41"
         result="blur"
         id="feGaussianBlur1618" />
      <feComposite
         in="SourceGraphic"
         in2="blur"
         operator="atop"
         result="composite1"
         id="feComposite1620" />
      <feComposite
         in2="composite1"
         operator="in"
         result="composite2"
         id="feComposite1622" />
      <feComposite
         in2="composite2"
         operator="in"
         result="composite3"
         id="feComposite1624" />
    </filter>
  </defs>
  <sodipodi:namedview
     pagecolor="#ffffff"
     bordercolor="#666666"
     borderopacity="1"
     objecttolerance="10"
     gridtolerance="10"
     guidetolerance="10"
     inkscape:pageopacity="0"
     inkscape:pageshadow="2"
     inkscape:window-width="1808"
     inkscape:window-height="1208"
     id="namedview837"
     showgrid="false"
     inkscape:zoom="15.323529"
     inkscape:cx="23.32042"
     inkscape:cy="29.655307"
     inkscape:window-x="1728"
     inkscape:window-y="25"
     inkscape:window-maximized="0"
     inkscape:current-layer="svg835"
     inkscape:pagecheckerboard="true"
     fit-margin-top="0"
     fit-margin-left="0"
     fit-margin-right="0"
     fit-margin-bottom="0"
     inkscape:document-rotation="0"
     showguides="true"
     inkscape:guide-bbox="true">
    <sodipodi:guide
       position="23.290772,58.943134"
       orientation="1,0"
       id="guide1636" />
  </sodipodi:namedview>
  <path
     id="path843"
     style="font-variation-settings:normal;display:inline;vector-effect:none;fill:#fde23b;fill-opacity:0.98039216;fill-rule:evenodd;stroke:#ffffff;stroke-width:1.5;stroke-linecap:butt;stroke-linejoin:round;stroke-miterlimit:4;stroke-dasharray:none;stroke-dashoffset:1.93209;stroke-opacity:1;paint-order:stroke fill markers;stop-color:#000000"
     d="M 23.25,0.75 C 12.643398,0.75 0.75,10.823592 0.75,23.249999 0.7501658,29.768677 3.8418774,35.680075 8.5000003,40.240233 13.597287,45.230319 20.38547,54.153516 23.25,60.749999 26.13237,53.674575 33.565227,44.682657 38.472656,39.818358 42.945542,35.384783 45.749914,29.54788 45.75,23.249999 45.75,10.823592 33.856602,0.75 23.25,0.75 Z"
     sodipodi:nodetypes="ccscscc"
     inkscape:label="marker" />
  <path
     d="m 34.626573,14.815129 1.03128,-1.02878 h 2.18145 c 0.317403,0 0.594992,-0.276976 0.594992,-0.593522 0,-0.316547 -0.277589,-0.593524 -0.594992,-0.593524 H 35.18175 l -1.824419,1.820137 -8.607223,1.938849 H 12.890525 c -1.110613,0 -2.062544,0.791351 -2.300533,1.820124 -1.0312677,0.237408 -1.7848877,1.147478 -1.7848877,2.2554 v 7.320106 c 0,0.316553 0.277649,0.593534 0.594963,0.593534 0.317314,0 0.594963,-0.276981 0.594963,-0.593534 V 20.39424 c 0,-0.395685 0.1983217,-0.751793 0.5156347,-0.949644 v 15.273335 h 3.490454 l 1.507237,-5.302129 0.237978,-1.187052 c 0.118998,-0.63309 0.674306,-1.107903 1.348592,-1.107903 l 7.536202,0.791349 h 0.07932 c 0.674304,0 1.229592,0.474831 1.34859,1.107922 l 0.237978,1.187033 1.110596,4.51078 h 3.371431 v -6.647459 c 0,-0.35611 0.11907,-0.672664 0.317403,-0.910071 l 3.21273,-5.14387 2.935141,0.356128 2.895514,-4.589929 z M 11.740264,33.570527 v -0.75185 h 1.586551 l -0.198312,0.75185 z m 16.57955,0 -0.19833,-0.75185 h 1.427941 v 0.75185 z m 8.329507,-12.503623 -2.935143,-0.35611 -3.530133,5.65824 c -0.356847,0.474831 -0.59499,1.068348 -0.59499,1.661864 v 3.561118 h -1.705531 l -0.39666,-1.661847 -0.23796,-1.187032 C 27.010981,27.556085 25.9797,26.685589 24.750108,26.685589 l -7.536185,-0.791367 h -0.07934 c -1.229593,0 -2.300521,0.870496 -2.538517,2.097121 l -0.198312,1.147478 -0.753619,2.53227 c -0.03967,0 -0.07933,0 -0.158664,0 h -1.784878 v -12.97829 c 0,-0.63309 0.515622,-1.187034 1.189927,-1.187034 h 11.899247 l 8.765705,-1.938844 4.918446,2.651065 z"
     id="path833-4"
     style="fill:#ffffff;fill-opacity:1;stroke:none;stroke-width:0;stroke-miterlimit:4;stroke-dasharray:none"
     inkscape:label="cow" />
</svg>
